<?xml version="1.0" encoding="UTF-8" standalone="no"?>
<!DOCTYPE svg PUBLIC "-//W3C//DTD SVG 1.1//EN" "http://www.w3.org/Graphics/SVG/1.1/DTD/svg11.dtd">
<svg width="100%" height="100%" viewBox="0 0 244 32" version="1.1" xmlns="http://www.w3.org/2000/svg" xmlns:xlink="http://www.w3.org/1999/xlink" xml:space="preserve" xmlns:serif="http://www.serif.com/" style="fill-rule:evenodd;clip-rule:evenodd;stroke-linejoin:round;stroke-miterlimit:2;">
    <g transform="matrix(0.531257,0,0,0.531257,40.5007,25.9316)">
        <text x="0px" y="0px" style="font-family:'Montserrat-Medium', 'Montserrat';font-weight:500;font-size:50.034px;fill:rgb(85,18,39);">LA</text>
        <g transform="matrix(1,0,0,1,64.494,0)">
            <text x="0px" y="0px" style="font-family:'Montserrat-Medium', 'Montserrat';font-weight:500;font-size:50.034px;fill:rgb(85,18,39);">W</text>
        </g>
    </g>
    <g transform="matrix(0.531257,0,0,0.531257,104.694,25.9316)">
        <text x="0px" y="0px" style="font-family:'Montserrat-ExtraBold', 'Montserrat';font-weight:800;font-size:50.034px;fill:rgb(85,18,39);">C</text>
        <g transform="matrix(1,0,0,1,36.175,0)">
            <text x="0px" y="0px" style="font-family:'Montserrat-ExtraBold', 'Montserrat';font-weight:800;font-size:50.034px;fill:rgb(85,18,39);">ONNEC</text>
        </g>
        <g transform="matrix(1,0,0,1,229.406,0)">
            <text x="0px" y="0px" style="font-family:'Montserrat-ExtraBold', 'Montserrat';font-weight:800;font-size:50.034px;fill:rgb(85,18,39);">T</text>
        </g>
    </g>
    <g transform="matrix(0.864865,0,0,0.969697,-54.4865,-100.848)">
        <path d="M100,107.3C100,105.479 98.342,104 96.3,104L66.7,104C64.658,104 63,105.479 63,107.3L63,133.7C63,135.521 64.658,137 66.7,137L96.3,137C98.342,137 100,135.521 100,133.7L100,107.3Z" style="fill:rgb(85,18,39);"/>
    </g>
    <g transform="matrix(0.11465,0,0,0.11465,-5.59115,1.64605)">
        <path d="M224.145,191.891C224.011,188.355 230.169,151.37 231.455,148.267C236.097,147.715 248.528,159.589 250.292,161.74C248.213,165.403 228.089,188.054 224.145,191.891ZM156.753,231.474C166.485,232.175 178.181,232.631 188.287,232.023C198.293,231.422 210.55,232.705 219.918,231.467L219.855,226.106C213.909,224.886 165.295,225.298 156.768,225.743L156.746,231.474L156.753,231.474ZM140.433,241.303L236.26,240.935L236.082,234.848L140.341,234.989L140.433,241.303ZM188.287,249.974C207.68,249.974 227.626,250.426 247.004,249.896L246.941,244.691C243.942,243.316 138.035,242.878 129.356,244.161L129.348,249.47C137.783,251.175 176.754,249.97 188.287,249.97L188.287,249.974ZM99.43,68.619C101.692,71.096 115.524,93.162 116.851,96.928L99.126,96.928L99.43,68.619ZM74.717,96.895C75.996,93.67 90.214,70.936 92.642,68.482L92.728,96.962L74.717,96.891L74.717,96.895ZM171.834,88.468C166.266,88.502 152.237,89.91 148.612,86.311C144.419,82.144 145.32,84.275 139.866,84.301C136.644,84.32 114.004,67.062 108.376,63.095L104.962,59.929C121.185,60.456 141.13,78.677 167.701,86.585C167.704,86.585 169.621,87.23 169.762,87.289C171.263,87.931 170.948,87.786 171.834,88.464L171.834,88.468ZM132.926,108.102L134.227,97.117L125.033,97.073L103.627,62.057C110.196,64.901 131.462,82.559 137.738,85.321C136.978,90.048 135.647,92.724 140.255,94.348L128.192,128.244C125.6,127.532 124.051,126.038 122.764,124.492C125.07,119.821 127.903,121.004 132.93,108.102L132.926,108.102ZM147.57,93.521C148.845,92.917 147.577,93.747 148.723,92.505C150.425,90.663 149.286,90.83 151.233,90.122L173.377,90.377C174.396,96.965 171.308,105.859 173.254,112.299C168.424,117.196 163.081,125.556 158.607,126.083C156.152,120.247 147.359,99.279 147.57,93.518L147.57,93.521ZM178.096,126.198L180.732,82.581C165.888,81.628 150.906,73.657 140.752,67.941C129.682,61.709 120.325,56.211 107.794,53.567L102.519,51.706L109.344,40.718C126.928,43.977 161.928,71.796 181.522,68.556L182.941,48.296C183.194,40.71 183.334,42.927 184.773,42.16L184.895,138.891L184.925,216.412L172.939,216.797L178.103,126.198L178.096,126.198ZM191.739,132.971C191.453,123.247 191.164,44.722 192.517,41.975C193.292,42.883 193.155,42.412 193.507,44.707L194.857,68.979C221.831,68.879 249.67,43.532 267.001,40.914C269.3,43.113 273.244,49.33 274.216,52.815C255.746,53.582 234.885,70.228 217.212,77.283C214.061,78.54 210.568,79.723 206.954,80.683C204.044,81.458 198.038,82.173 195.78,83.041L199.851,147.363L203.343,216.437L191.88,216.386L191.735,132.975L191.739,132.971ZM204.907,136.326C205.719,131.985 204.93,120.737 203.966,116.243C206.887,117.804 215.94,127.065 215.114,133.594L206.72,154.444C206.565,151.76 206.06,138.217 204.904,136.326L204.907,136.326ZM203.525,113.367C204.64,110.349 203.198,94.608 202.716,90.518L205.953,90.348L226.369,90.007C227.841,94.148 228.278,93.151 229.657,95.864C226.428,101.507 220.982,122.798 217.064,126.057C212.797,124.503 208.611,116.807 203.525,113.367ZM204.259,86.952C220.167,88.82 253.136,60.267 272.54,59.696C271.602,60.274 271.973,60.007 271.165,60.804L249.369,76.386C247.76,77.491 239.489,83.523 238.37,83.916C233.279,85.703 232.23,80.056 226.376,88.049C222.461,88.461 218.484,88.335 214.524,88.394C212.941,88.416 209.934,88.635 208.544,88.524C207.232,88.416 207.417,88.487 206.201,88.101C203.747,87.323 205.919,88.55 204.259,86.948L204.259,86.952ZM272.162,61.79C273.167,64.79 256.016,89.999 254.982,90.652L252.09,96.876L242.407,97.014C240.887,110.501 249.851,118.464 254.1,124.47C251.905,126.053 251.468,127.402 248.379,128.192L236.368,95.72C239.015,91.575 239.893,91.994 238.852,85.369C242.299,83.949 269.537,64.626 272.158,61.787L272.162,61.79ZM261.592,93.254C264.784,85.981 274.164,75.734 275.784,69.049C277.667,71.181 277.471,72.749 277.426,76.245C277.397,78.514 277.367,80.757 277.363,83.03C277.356,87.653 277.334,92.276 277.356,96.932L259.661,96.888L261.596,93.258L261.592,93.254ZM283.551,96.68L284.114,68.619C288.344,73.131 298.109,89.862 301.565,96.836L283.554,96.68L283.551,96.68ZM291.651,67.685L270.39,33.741C251.76,34.46 220.93,61.145 201.059,61.831C199.176,26.882 199.914,45.133 208.322,31.086C210.761,27.008 211.807,21.169 210.483,16.02C205.293,-4.167 173.825,-6.009 166.57,14.722C161.81,28.328 171.938,35.305 176.62,39.858L175.475,61.839C153.238,60.771 125.345,33.845 106.178,33.8L69.038,93.67L66.524,97.021L57.489,96.995C57.675,114.864 68.063,126.146 81.587,131.347C95.501,136.697 88.805,126.12 113.967,157.358C115.984,159.86 118.612,162.815 120.651,165.058C123.339,168.012 124.985,170.244 127.346,172.75C132.311,178.011 136.793,183.142 141.182,188.536L161.328,211.57C164.427,214.992 165.862,215.729 165.906,222.291L210.413,222.814C210.594,215.681 211.11,216.133 214.891,212.052C217.186,209.572 219.592,206.928 222.057,203.996C240.379,182.241 262.286,158.981 279.169,138.365C286.824,129.015 286.29,136.945 300.245,128.997C310.232,123.306 317.439,113.937 319.008,102C319.964,94.73 316.238,97.106 309.209,96.787C306.944,90.474 296.152,74.814 291.651,67.685ZM126.282,161.743C127.962,159.141 135.621,153.643 139.106,150.681C141.052,149.024 141.835,148.082 145.271,148.063L152.979,192.284C150.688,191.016 127.784,164.617 126.282,161.743ZM210.224,207.581C209.545,194.019 208.162,179.631 207.247,165.491C206.772,158.162 216.037,135.066 217.913,132.474C222.224,133.308 225.787,139.218 226.629,143.088C227.607,147.593 227.607,145.457 228.53,147.859C229.861,151.318 223.025,186.883 221.683,192.67C220.193,199.08 220.434,196.218 216.797,200.452C214.257,203.406 212.719,205.408 210.224,207.581ZM158.662,132.5C160.861,135.592 163.434,143.993 164.865,147.93C167.308,154.651 169.966,157.873 169.339,165.503L166.629,205.06C165.68,207.985 166.867,205.849 165.239,207.696C162.229,202.917 156.201,199.439 154.636,192.818C153.038,186.063 152.052,177.333 150.884,170.311C150.083,165.491 146.58,151.756 148.03,147.841C148.912,145.45 148.945,147.526 149.857,143.77C150.762,140.048 149.164,142.043 151.711,138.714C153.35,136.574 155.778,133.264 158.666,132.496L158.662,132.5ZM235.76,141.223C239.712,139.029 242.359,134.02 247.538,134.721C249.547,137.72 254.704,152.953 255.431,157.035C253.232,158.307 253.395,158.752 251.768,160.031C246.248,157.031 240.917,150.195 235.456,147.552L235.756,141.227L235.76,141.223ZM124.803,160.108L121.407,156.683C121.771,152.501 125.17,144.508 126.876,139.322C130.164,129.319 132.959,136.586 141.038,141.283L141.127,147.515C135.799,150.477 129.764,157.706 124.803,160.108ZM256.725,154.206C250.126,136.615 246.815,132.404 255.167,125.634C257.763,126.494 260.918,128.874 263.82,130.216C266.823,131.607 271.131,132.355 274.486,133.809C272.707,137.594 260.165,151.485 256.725,154.203L256.725,154.206ZM101.988,133.812C105.444,132.352 108.346,132.222 112.187,130.498C115.961,128.804 118.011,127.054 121.415,125.86C130.754,131.492 124.644,140.107 119.921,154.295C119.735,154.166 119.472,153.71 119.391,153.865C119.309,154.017 118.983,153.532 118.875,153.435L101.985,133.812L101.988,133.812ZM142.576,96.146C143.826,99.598 143.711,117.493 143.929,122.776C144.578,138.417 146.636,144.226 137.267,136.593C128.466,129.423 131.213,127.043 134.858,116.777C136.311,112.688 140.448,98.615 142.576,96.15L142.576,96.146ZM233.991,96.187C235.889,98.552 240.386,112.851 241.695,116.774C245.017,126.746 247.905,129.757 239.801,136.23C237.454,138.102 233.576,142.829 232.26,138.046L233.995,96.187L233.991,96.187ZM170.007,154.336C168.605,153.005 170.007,155.374 168.242,152.141L165.269,144.115C158.814,126.872 159.997,130.016 172.009,116.303L170.007,154.332L170.007,154.336ZM230.254,139.77C226.406,139.314 222.736,134.58 221.672,132.437C219.392,127.844 220.589,124.11 222.313,119.639C224.864,113.033 228.438,101.292 231.47,96.572L230.254,139.766L230.254,139.77ZM144.834,96.517C147.852,100.202 151.915,113.441 154.043,118.979C158.811,131.392 152.375,139.081 146.524,139.77L144.834,96.517ZM294.317,126.038L294.113,120.952C298.024,118.824 302.098,117.063 305.468,113.874C312.928,106.816 308.853,110.764 314.329,104.02C311.845,114.182 303.263,123.202 294.317,126.034L294.317,126.038ZM62.239,104.065C65.119,107.116 65.012,108.543 70.954,113.989C74.284,117.041 78.799,118.305 82.228,121.119L82.362,126.053C71.129,122.227 65.82,114.494 62.235,104.065L62.239,104.065Z" style="fill:white;"/>
    </g>
</svg>
