<svg clip-rule="evenodd" fill-rule="evenodd" stroke-linejoin="round" stroke-miterlimit="2" viewBox="0 0 320 320" xmlns="http://www.w3.org/2000/svg"><path d="m309 56.85c0-24.753-19.895-44.85-44.4-44.85h-207.2c-24.505 0-44.4 20.097-44.4 44.85v209.3c0 24.753 19.895 44.85 44.4 44.85h207.2c24.505 0 44.4-20.097 44.4-44.85z" fill="#551227" transform="matrix(1.08108 0 0 1.07023 -14.0541 -12.8428)"/><path d="m224.143 191.891c-.132-3.537 6.026-40.52 7.312-43.623 4.642-.552 17.072 11.323 18.835 13.472-2.078 3.661-22.203 26.315-26.147 30.151zm-67.392 39.582c9.731.702 21.43 1.157 31.536.549 10.006-.602 22.263.682 31.632-.555l-.062-5.361c-5.944-1.22-54.561-.807-63.085-.363zm-16.318 9.827 95.827-.367-.179-6.086-95.742.142zm47.854 8.672c19.392.001 39.338.453 58.716-.077l-.061-5.205c-3-1.376-108.907-1.813-117.584-.53l-.009 5.311c8.436 1.703 47.404.5 58.938.501zm-88.856-181.355c2.261 2.477 16.092 24.542 17.42 28.308l-17.723.002zm-24.714 28.274c1.278-3.225 15.496-25.958 17.925-28.411l.086 28.48zm97.116-8.427c-5.568.032-19.599 1.443-23.222-2.158-4.194-4.167-3.291-2.035-8.747-2.008-3.22.017-25.862-17.237-31.489-21.205l-3.415-3.166c16.223.527 36.169 18.75 62.739 26.655.002.001 1.919.644 2.062.705 1.501.642 1.187.496 2.072 1.177zm-38.907 19.634 1.303-10.984-9.196-.045-21.407-35.014c6.568 2.843 27.834 20.502 34.111 23.263-.761 4.727-2.089 7.404 2.516 9.025l-12.063 33.897c-2.593-.714-4.143-2.207-5.429-3.754 2.304-4.669 5.139-3.487 10.165-16.388zm14.642-14.58c1.275-.606.009.225 1.154-1.015 1.702-1.843.563-1.674 2.511-2.382l22.143.257c1.02 6.59-2.068 15.482-.121 21.921-4.829 4.898-10.173 13.259-14.649 13.784-2.454-5.836-11.248-26.804-11.038-32.565zm30.527 32.676 2.635-43.616c-14.842-.951-29.824-8.923-39.981-14.641-11.069-6.232-20.426-11.731-32.958-14.373l-5.277-1.86 6.823-10.988c17.585 3.26 52.586 31.079 72.178 27.84l1.422-20.261c.251-7.585.393-5.367 1.831-6.135l.121 96.73.03 77.519-11.986.384zm13.644 6.771c-.286-9.724-.573-88.248.78-90.996.776.907.639.437.991 2.731l1.349 24.27c26.976-.101 54.811-25.448 72.146-28.064 2.3 2.2 6.242 8.416 7.215 11.901-18.469.767-39.332 17.412-57.005 24.469-3.151 1.258-6.643 2.438-10.258 3.399-2.91.773-8.917 1.49-11.173 2.358l4.071 64.322 3.491 69.074-11.464-.054zm13.17 3.356c.81-4.341.022-15.587-.943-20.083 2.923 1.559 11.973 10.822 11.15 17.35l-8.392 20.851c-.157-2.684-.661-16.228-1.815-18.118zm-1.382-22.959c1.115-3.019-.325-18.761-.808-22.847l3.237-.171 20.416-.34c1.473 4.142 1.908 3.145 3.288 5.858-3.23 5.641-8.674 26.934-12.594 30.191-4.266-1.553-8.454-9.248-13.539-12.691zm.732-26.416c15.909 1.87 48.879-26.685 68.282-27.256-.936.578-.568.311-1.377 1.11l-21.795 15.582c-1.61 1.103-9.879 7.138-10.999 7.532-5.089 1.787-6.139-3.861-11.994 4.132-3.916.41-7.893.287-11.851.346-1.582.024-4.589.24-5.981.128-1.312-.106-1.128-.038-2.344-.422-2.454-.777-.283.448-1.941-1.152zm67.903-25.162c1.007 2.998-16.145 28.209-17.178 28.86l-2.89 6.226-9.685.138c-1.52 13.487 7.443 21.452 11.694 27.458-2.196 1.584-2.631 2.931-5.719 3.724l-12.012-32.472c2.648-4.145 3.524-3.726 2.483-10.35 3.449-1.419 30.686-20.742 33.307-23.584zm-10.57 31.465c3.192-7.273 12.572-17.519 14.191-24.207 1.882 2.133 1.688 3.702 1.641 7.195-.031 2.268-.06 4.513-.063 6.785-.006 4.622-.031 9.247-.009 13.904l-17.696-.046zm21.957 3.425.562-28.061c4.231 4.512 13.995 21.242 17.449 28.216zm8.101-28.994-21.259-33.943c-18.628.717-49.459 27.403-69.329 28.089-1.884-34.948-1.144-16.698 7.262-30.744 2.441-4.078 3.486-9.915 2.162-15.067-5.19-20.187-36.66-22.027-43.913-1.297-4.762 13.608 5.368 20.583 10.052 25.136l-1.145 21.982c-22.238-1.069-50.13-27.995-69.297-28.039l-37.139 59.868-2.514 3.35-9.036-.027c.186 17.87 10.572 29.151 24.096 34.353 13.913 5.351 7.218-5.226 32.38 26.011 2.015 2.502 4.647 5.459 6.683 7.7 2.686 2.954 4.332 5.187 6.695 7.692 4.962 5.263 9.446 10.392 13.835 15.786l20.144 23.033c3.099 3.422 4.535 4.161 4.578 10.722l44.508.523c.18-7.134.697-6.682 4.476-10.763 2.296-2.479 4.702-5.126 7.168-8.055 18.32-21.752 40.229-45.015 57.111-65.631 7.656-9.35 7.122-1.419 21.076-9.367 9.989-5.691 17.193-15.058 18.762-26.997.956-7.271-2.771-4.893-9.798-5.212-2.266-6.312-13.056-21.972-17.558-29.103zm-165.369 94.06c1.681-2.602 9.34-8.1 12.822-11.063 1.946-1.656 2.727-2.6 6.166-2.618l7.708 44.221c-2.291-1.27-25.194-27.669-26.696-30.54zm83.942 45.835c-.678-13.56-2.061-27.949-2.977-42.089-.475-7.329 8.788-30.427 10.666-33.017 4.313.832 7.876 6.742 8.718 10.612.979 4.504.978 2.37 1.902 4.772 1.329 3.459-5.505 39.023-6.849 44.81-1.489 6.412-1.248 3.55-4.888 7.781-2.541 2.954-4.079 4.959-6.572 7.131zm-51.561-75.08c2.199 3.093 4.77 11.495 6.202 15.431 2.443 6.72 5.1 9.943 4.473 17.57l-2.71 39.559c-.95 2.926.236.791-1.389 2.635-3.011-4.78-9.038-8.257-10.604-14.876-1.599-6.757-2.582-15.485-3.751-22.507-.802-4.82-4.304-18.554-2.856-22.471.883-2.391.916-.317 1.827-4.069.903-3.722-.694-1.729 1.852-5.056 1.638-2.141 4.067-5.45 6.956-6.216zm77.097 8.724c3.953-2.196 6.598-7.203 11.778-6.504 2.008 3 7.165 18.231 7.894 22.315-2.199 1.273-2.036 1.716-3.661 2.995-5.521-2.998-10.851-9.837-16.311-12.481zm-110.955 18.884-3.396-3.426c.364-4.182 3.764-12.174 5.469-17.362 3.288-10.003 6.084-2.735 14.163 1.962l.089 6.231c-5.326 2.961-11.363 10.19-16.325 12.595zm131.922-5.9c-6.601-17.59-9.909-21.803-1.556-28.571 2.596.859 5.749 3.239 8.651 4.582 3.003 1.39 7.309 2.138 10.667 3.594-1.78 3.784-14.322 17.677-17.762 20.395zm-154.735-20.395c3.456-1.46 6.36-1.59 10.2-3.314 3.773-1.694 5.826-3.443 9.228-4.64 9.337 5.633 3.229 14.249-1.494 28.436-.186-.13-.448-.584-.529-.428-.08.153-.408-.333-.516-.431zm40.588-37.665c1.251 3.453 1.134 21.348 1.353 26.629.65 15.642 2.707 21.448-6.663 13.816-8.801-7.169-6.055-9.55-2.41-19.816 1.451-4.088 5.59-18.16 7.72-20.629zm91.415.041c1.899 2.367 6.396 16.664 7.703 20.587 3.321 9.972 6.209 12.984-1.895 19.455-2.347 1.874-6.224 6.599-7.542 1.817zm-63.985 58.148c-1.403-1.33-.001 1.039-1.763-2.193l-2.975-8.025c-6.453-17.242-5.27-14.101 6.738-27.812zm60.248-14.567c-3.848-.454-7.519-5.191-8.582-7.332-2.282-4.593-1.085-8.327.641-12.796 2.549-6.605 6.125-18.349 9.155-23.067zm-85.42-43.253c3.016 3.684 7.082 16.925 9.208 22.461 4.769 12.412-1.668 20.101-7.518 20.792zm149.484 29.52-.206-5.087c3.91-2.128 7.987-3.888 11.355-7.076 7.46-7.058 3.386-3.111 8.861-9.852-2.483 10.161-11.066 19.181-20.01 22.015zm-232.076-21.973c2.879 3.051 2.774 4.477 8.716 9.924 3.331 3.053 7.845 4.316 11.275 7.128l.135 4.935c-11.232-3.827-16.541-11.56-20.126-21.987z" fill="#fff" transform="matrix(1.07644 0 0 1.07644 -42.7185 24.739)"/></svg>