<svg clip-rule="evenodd" fill-rule="evenodd" stroke-linejoin="round" stroke-miterlimit="2" viewBox="0 0 262 251" xmlns="http://www.w3.org/2000/svg"><path d="m224.145 191.891c-.134-3.536 6.024-40.521 7.31-43.624 4.642-.552 17.073 11.322 18.837 13.473-2.079 3.663-22.203 26.314-26.147 30.151zm-67.392 39.583c9.732.701 21.428 1.157 31.534.549 10.006-.601 22.263.682 31.631-.556l-.063-5.361c-5.946-1.22-54.56-.808-63.087-.363l-.022 5.731zm-16.32 9.829 95.827-.368-.178-6.087-95.741.141zm47.854 8.671c19.393 0 39.339.452 58.717-.078l-.063-5.205c-2.999-1.375-108.906-1.813-117.585-.53l-.008 5.309c8.435 1.705 47.406.5 58.939.5zm-88.857-181.355c2.262 2.477 16.094 24.543 17.421 28.309h-17.725zm-24.713 28.276c1.279-3.225 15.497-25.959 17.925-28.413l.086 28.48-18.011-.071zm97.117-8.427c-5.568.034-19.597 1.442-23.222-2.157-4.193-4.167-3.292-2.036-8.746-2.01-3.222.019-25.862-17.239-31.49-21.206l-3.414-3.166c16.223.527 36.168 18.748 62.739 26.656.003 0 1.92.645 2.061.704 1.501.642 1.186.497 2.072 1.175zm-38.908 19.634 1.301-10.985-9.194-.044-21.406-35.016c6.569 2.844 27.835 20.502 34.111 23.264-.76 4.727-2.091 7.403 2.517 9.027l-12.063 33.896c-2.592-.712-4.141-2.206-5.428-3.752 2.306-4.671 5.139-3.488 10.166-16.39zm14.644-14.581c1.275-.604.007.226 1.153-1.016 1.702-1.842.563-1.675 2.51-2.383l22.144.255c1.019 6.588-2.069 15.482-.123 21.922-4.83 4.897-10.173 13.257-14.647 13.784-2.455-5.836-11.248-26.804-11.037-32.565zm30.526 32.677 2.636-43.617c-14.844-.953-29.826-8.924-39.98-14.64-11.07-6.232-20.427-11.73-32.958-14.374l-5.275-1.861 6.825-10.988c17.584 3.259 52.584 31.078 72.178 27.838l1.419-20.26c.253-7.586.393-5.369 1.832-6.136l.122 96.731.03 77.521-11.986.385 5.164-90.599zm13.643 6.773c-.286-9.724-.575-88.249.778-90.996.775.908.638.437.99 2.732l1.35 24.272c26.974-.1 54.813-25.447 72.144-28.065 2.299 2.199 6.243 8.416 7.215 11.901-18.47.767-39.331 17.413-57.004 24.468-3.151 1.257-6.644 2.44-10.258 3.4-2.91.775-8.916 1.49-11.174 2.358l4.071 64.322 3.492 69.074-11.463-.051-.145-83.411zm13.168 3.355c.812-4.341.023-15.589-.941-20.083 2.921 1.561 11.974 10.822 11.148 17.351l-8.394 20.85c-.155-2.684-.66-16.227-1.816-18.118zm-1.382-22.959c1.115-3.018-.327-18.759-.809-22.849l3.237-.17 20.416-.341c1.472 4.141 1.909 3.144 3.288 5.857-3.229 5.643-8.675 26.934-12.593 30.193-4.267-1.554-8.453-9.25-13.539-12.69zm.734-26.415c15.908 1.868 48.877-26.685 68.281-27.256-.938.578-.567.311-1.375 1.108l-21.796 15.582c-1.609 1.105-9.88 7.137-10.999 7.53-5.091 1.787-6.14-3.86-11.994 4.133-3.915.412-7.892.286-11.852.345-1.583.022-4.59.241-5.98.13-1.312-.108-1.127-.037-2.343-.423-2.454-.778-.282.449-1.942-1.153zm67.903-25.162c1.005 3-16.146 28.209-17.18 28.862l-2.892 6.224-9.683.138c-1.52 13.487 7.444 21.45 11.693 27.456-2.195 1.583-2.632 2.932-5.721 3.722l-12.011-32.472c2.647-4.145 3.525-3.726 2.484-10.351 3.447-1.42 30.685-20.743 33.306-23.582zm-10.57 31.464c3.192-7.273 12.572-17.52 14.192-24.205 1.883 2.132 1.687 3.7 1.642 7.196-.029 2.269-.059 4.512-.063 6.785-.007 4.623-.029 9.246-.007 13.902l-17.695-.044 1.935-3.63zm21.959 3.426.563-28.061c4.23 4.512 13.995 21.243 17.451 28.217l-18.011-.156zm8.1-28.995-21.261-33.944c-18.63.719-49.46 27.404-69.331 28.09-1.883-34.949-1.145-16.698 7.263-30.745 2.439-4.078 3.485-9.917 2.161-15.066-5.19-20.187-36.658-22.029-43.913-1.298-4.76 13.606 5.368 20.583 10.05 25.136l-1.145 21.981c-22.237-1.068-50.13-27.994-69.297-28.039l-37.14 59.87-2.514 3.351-9.035-.026c.186 17.869 10.574 29.151 24.098 34.352 13.914 5.35 7.218-5.227 32.38 26.011 2.017 2.502 4.645 5.457 6.684 7.7 2.688 2.954 4.334 5.186 6.695 7.692 4.965 5.261 9.447 10.392 13.836 15.786l20.146 23.034c3.099 3.422 4.534 4.159 4.578 10.721l44.507.523c.181-7.133.697-6.681 4.478-10.762 2.295-2.48 4.701-5.124 7.166-8.056 18.322-21.755 40.229-45.015 57.112-65.631 7.655-9.35 7.121-1.42 21.076-9.368 9.987-5.691 17.194-15.06 18.763-26.997.956-7.27-2.77-4.894-9.799-5.213-2.265-6.313-13.057-21.973-17.558-29.102zm-165.369 94.058c1.68-2.602 9.339-8.1 12.824-11.062 1.946-1.657 2.729-2.599 6.165-2.618l7.708 44.221c-2.291-1.268-25.195-27.667-26.697-30.541zm83.942 45.838c-.679-13.562-2.062-27.95-2.977-42.09-.475-7.329 8.79-30.425 10.666-33.017 4.311.834 7.874 6.744 8.716 10.614.978 4.505.978 2.369 1.901 4.771 1.331 3.459-5.505 39.024-6.847 44.811-1.49 6.41-1.249 3.548-4.886 7.782-2.54 2.954-4.078 4.956-6.573 7.129zm-51.562-75.081c2.199 3.092 4.772 11.493 6.203 15.43 2.443 6.721 5.101 9.943 4.474 17.573l-2.71 39.557c-.949 2.925.238.789-1.39 2.636-3.01-4.779-9.038-8.257-10.603-14.878-1.598-6.755-2.584-15.485-3.752-22.507-.801-4.82-4.304-18.555-2.854-22.47.882-2.391.915-.315 1.827-4.071.905-3.722-.693-1.727 1.854-5.056 1.639-2.14 4.067-5.45 6.955-6.218zm77.098 8.723c3.952-2.194 6.599-7.203 11.778-6.502 2.009 2.999 7.166 18.232 7.893 22.314-2.199 1.272-2.036 1.717-3.663 2.996-5.52-3-10.851-9.836-16.312-12.479l.3-6.325zm-110.957 18.885-3.396-3.425c.364-4.182 3.763-12.175 5.469-17.361 3.288-10.003 6.083-2.736 14.162 1.961l.089 6.232c-5.328 2.962-11.363 10.191-16.324 12.593zm131.922-5.902c-6.599-17.591-9.91-21.802-1.558-28.572 2.596.86 5.751 3.24 8.653 4.582 3.003 1.391 7.311 2.139 10.666 3.593-1.779 3.785-14.321 17.676-17.761 20.394zm-154.737-20.394c3.456-1.46 6.358-1.59 10.199-3.314 3.774-1.694 5.824-3.444 9.228-4.638 9.339 5.632 3.229 14.247-1.494 28.435-.186-.129-.449-.585-.53-.43-.082.152-.408-.333-.516-.43l-16.89-19.623zm40.588-37.666c1.25 3.452 1.135 21.347 1.353 26.63.649 15.641 2.707 21.45-6.662 13.817-8.801-7.17-6.054-9.55-2.409-19.816 1.453-4.089 5.59-18.162 7.718-20.627zm91.415.041c1.898 2.365 6.395 16.664 7.704 20.587 3.322 9.972 6.21 12.983-1.894 19.456-2.347 1.872-6.225 6.599-7.541 1.816l1.735-41.859zm-63.984 58.149c-1.402-1.331 0 1.038-1.765-2.195l-2.973-8.026c-6.455-17.243-5.272-14.099 6.74-27.812l-2.002 38.029zm60.247-14.566c-3.848-.456-7.518-5.19-8.582-7.333-2.28-4.593-1.083-8.327.641-12.798 2.551-6.606 6.125-18.347 9.157-23.067l-1.216 43.194zm-85.42-43.253c3.018 3.685 7.081 16.924 9.209 22.462 4.768 12.413-1.668 20.102-7.519 20.791zm149.483 29.521-.204-5.086c3.911-2.128 7.985-3.889 11.355-7.078 7.46-7.058 3.385-3.11 8.861-9.854-2.484 10.162-11.066 19.182-20.012 22.014zm-232.078-21.973c2.88 3.051 2.773 4.478 8.715 9.924 3.33 3.052 7.845 4.316 11.274 7.13l.134 4.934c-11.233-3.826-16.542-11.559-20.127-21.988z" fill="#551227" transform="translate(-57.4894 -.004249)"/></svg>